<svg width="24" height="24" viewBox="0 0 22 22" fill="none" xmlns="http://www.w3.org/2000/svg"><path d="M16.0714 7.71408C16.0714 6.29327 15.507 4.93066 14.5024 3.926C13.4977 2.92135 12.1351 2.35693 10.7143 2.35693C9.2935 2.35693 7.93089 2.92135 6.92623 3.926C5.92157 4.93066 5.35716 6.29327 5.35716 7.71408C5.35716 13.9641 2.67859 15.7498 2.67859 15.7498H18.75C18.75 15.7498 16.0714 13.9641 16.0714 7.71408Z" stroke="black" stroke-width="2" stroke-linecap="round" stroke-linejoin="round"></path><path d="M12.259 19.3213C12.102 19.5919 11.8767 19.8165 11.6056 19.9727C11.3345 20.1288 11.0272 20.211 10.7143 20.211C10.4015 20.211 10.0941 20.1288 9.82305 19.9727C9.55196 19.8165 9.32665 19.5919 9.16968 19.3213" stroke="black" stroke-width="2" stroke-linecap="round" stroke-linejoin="round"></path></svg>